<?xml version="1.0" encoding="UTF-8" standalone="no"?>
<!DOCTYPE svg PUBLIC "-//W3C//DTD SVG 1.1//EN"
 "http://www.w3.org/Graphics/SVG/1.1/DTD/svg11.dtd">
<!-- Generated by graphviz version 2.43.0 (0)
 -->
<!-- Title: %3 Pages: 1 -->
<svg width="496pt" height="688pt"
 viewBox="0.00 0.00 496.00 688.00" xmlns="http://www.w3.org/2000/svg" xmlns:xlink="http://www.w3.org/1999/xlink">
<g id="graph0" class="graph" transform="scale(1 1) rotate(0) translate(4 684)">
<title>%3</title>
<polygon fill="white" stroke="transparent" points="-4,4 -4,-684 492,-684 492,4 -4,4"/>
<!-- 136398627594592 -->
<g id="node1" class="node">
<title>136398627594592</title>
<polygon fill="#caff70" stroke="black" points="300.5,-31 246.5,-31 246.5,0 300.5,0 300.5,-31"/>
<text text-anchor="middle" x="273.5" y="-7" font-family="monospace" font-size="10.00"> ()</text>
</g>
<!-- 136398668350176 -->
<g id="node2" class="node">
<title>136398668350176</title>
<polygon fill="lightgrey" stroke="black" points="321,-86 226,-86 226,-67 321,-67 321,-86"/>
<text text-anchor="middle" x="273.5" y="-74" font-family="monospace" font-size="10.00">MeanBackward0</text>
</g>
<!-- 136398668350176&#45;&gt;136398627594592 -->
<g id="edge22" class="edge">
<title>136398668350176&#45;&gt;136398627594592</title>
<path fill="none" stroke="black" d="M273.5,-66.79C273.5,-60.07 273.5,-50.4 273.5,-41.34"/>
<polygon fill="black" stroke="black" points="277,-41.19 273.5,-31.19 270,-41.19 277,-41.19"/>
</g>
<!-- 136398668357664 -->
<g id="node3" class="node">
<title>136398668357664</title>
<polygon fill="lightgrey" stroke="black" points="324,-141 223,-141 223,-122 324,-122 324,-141"/>
<text text-anchor="middle" x="273.5" y="-129" font-family="monospace" font-size="10.00">AddmmBackward0</text>
</g>
<!-- 136398668357664&#45;&gt;136398668350176 -->
<g id="edge1" class="edge">
<title>136398668357664&#45;&gt;136398668350176</title>
<path fill="none" stroke="black" d="M273.5,-121.75C273.5,-114.8 273.5,-104.85 273.5,-96.13"/>
<polygon fill="black" stroke="black" points="277,-96.09 273.5,-86.09 270,-96.09 277,-96.09"/>
</g>
<!-- 136398668357952 -->
<g id="node4" class="node">
<title>136398668357952</title>
<polygon fill="lightgrey" stroke="black" points="193,-196 92,-196 92,-177 193,-177 193,-196"/>
<text text-anchor="middle" x="142.5" y="-184" font-family="monospace" font-size="10.00">AccumulateGrad</text>
</g>
<!-- 136398668357952&#45;&gt;136398668357664 -->
<g id="edge2" class="edge">
<title>136398668357952&#45;&gt;136398668357664</title>
<path fill="none" stroke="black" d="M163.55,-176.98C184.91,-168.34 218.2,-154.87 242.56,-145.02"/>
<polygon fill="black" stroke="black" points="244.11,-148.17 252.07,-141.17 241.49,-141.68 244.11,-148.17"/>
</g>
<!-- 136398731775888 -->
<g id="node5" class="node">
<title>136398731775888</title>
<polygon fill="lightblue" stroke="black" points="160,-262 95,-262 95,-232 160,-232 160,-262"/>
<text text-anchor="middle" x="127.5" y="-250" font-family="monospace" font-size="10.00">out.bias</text>
<text text-anchor="middle" x="127.5" y="-239" font-family="monospace" font-size="10.00"> (10)</text>
</g>
<!-- 136398731775888&#45;&gt;136398668357952 -->
<g id="edge3" class="edge">
<title>136398731775888&#45;&gt;136398668357952</title>
<path fill="none" stroke="black" d="M131.13,-231.84C133.11,-224.13 135.58,-214.49 137.71,-206.17"/>
<polygon fill="black" stroke="black" points="141.16,-206.82 140.25,-196.27 134.38,-205.08 141.16,-206.82"/>
</g>
<!-- 136398668357760 -->
<g id="node6" class="node">
<title>136398668357760</title>
<polygon fill="lightgrey" stroke="black" points="321,-196 226,-196 226,-177 321,-177 321,-196"/>
<text text-anchor="middle" x="273.5" y="-184" font-family="monospace" font-size="10.00">ViewBackward0</text>
</g>
<!-- 136398668357760&#45;&gt;136398668357664 -->
<g id="edge4" class="edge">
<title>136398668357760&#45;&gt;136398668357664</title>
<path fill="none" stroke="black" d="M273.5,-176.75C273.5,-169.8 273.5,-159.85 273.5,-151.13"/>
<polygon fill="black" stroke="black" points="277,-151.09 273.5,-141.09 270,-151.09 277,-151.09"/>
</g>
<!-- 136398668357808 -->
<g id="node7" class="node">
<title>136398668357808</title>
<polygon fill="lightgrey" stroke="black" points="369,-256.5 178,-256.5 178,-237.5 369,-237.5 369,-256.5"/>
<text text-anchor="middle" x="273.5" y="-244.5" font-family="monospace" font-size="10.00">MaxPool2DWithIndicesBackward0</text>
</g>
<!-- 136398668357808&#45;&gt;136398668357760 -->
<g id="edge5" class="edge">
<title>136398668357808&#45;&gt;136398668357760</title>
<path fill="none" stroke="black" d="M273.5,-237.37C273.5,-229.25 273.5,-216.81 273.5,-206.39"/>
<polygon fill="black" stroke="black" points="277,-206.17 273.5,-196.17 270,-206.17 277,-206.17"/>
</g>
<!-- 136398668357616 -->
<g id="node8" class="node">
<title>136398668357616</title>
<polygon fill="lightgrey" stroke="black" points="321,-322.5 226,-322.5 226,-303.5 321,-303.5 321,-322.5"/>
<text text-anchor="middle" x="273.5" y="-310.5" font-family="monospace" font-size="10.00">ReluBackward0</text>
</g>
<!-- 136398668357616&#45;&gt;136398668357808 -->
<g id="edge6" class="edge">
<title>136398668357616&#45;&gt;136398668357808</title>
<path fill="none" stroke="black" d="M273.5,-303.37C273.5,-294.16 273.5,-279.29 273.5,-267.27"/>
<polygon fill="black" stroke="black" points="277,-266.91 273.5,-256.91 270,-266.91 277,-266.91"/>
</g>
<!-- 136398668359536 -->
<g id="node9" class="node">
<title>136398668359536</title>
<polygon fill="lightgrey" stroke="black" points="342,-383 205,-383 205,-364 342,-364 342,-383"/>
<text text-anchor="middle" x="273.5" y="-371" font-family="monospace" font-size="10.00">ConvolutionBackward0</text>
</g>
<!-- 136398668359536&#45;&gt;136398668357616 -->
<g id="edge7" class="edge">
<title>136398668359536&#45;&gt;136398668357616</title>
<path fill="none" stroke="black" d="M273.5,-363.87C273.5,-355.75 273.5,-343.31 273.5,-332.89"/>
<polygon fill="black" stroke="black" points="277,-332.67 273.5,-322.67 270,-332.67 277,-332.67"/>
</g>
<!-- 136398668359680 -->
<g id="node10" class="node">
<title>136398668359680</title>
<polygon fill="lightgrey" stroke="black" points="205,-438 14,-438 14,-419 205,-419 205,-438"/>
<text text-anchor="middle" x="109.5" y="-426" font-family="monospace" font-size="10.00">MaxPool2DWithIndicesBackward0</text>
</g>
<!-- 136398668359680&#45;&gt;136398668359536 -->
<g id="edge8" class="edge">
<title>136398668359680&#45;&gt;136398668359536</title>
<path fill="none" stroke="black" d="M135.85,-418.98C163.26,-410.13 206.39,-396.19 237.06,-386.28"/>
<polygon fill="black" stroke="black" points="238.5,-389.49 246.94,-383.08 236.35,-382.83 238.5,-389.49"/>
</g>
<!-- 136398668358768 -->
<g id="node11" class="node">
<title>136398668358768</title>
<polygon fill="lightgrey" stroke="black" points="157,-498.5 62,-498.5 62,-479.5 157,-479.5 157,-498.5"/>
<text text-anchor="middle" x="109.5" y="-486.5" font-family="monospace" font-size="10.00">ReluBackward0</text>
</g>
<!-- 136398668358768&#45;&gt;136398668359680 -->
<g id="edge9" class="edge">
<title>136398668358768&#45;&gt;136398668359680</title>
<path fill="none" stroke="black" d="M109.5,-479.37C109.5,-471.25 109.5,-458.81 109.5,-448.39"/>
<polygon fill="black" stroke="black" points="113,-448.17 109.5,-438.17 106,-448.17 113,-448.17"/>
</g>
<!-- 136398668360688 -->
<g id="node12" class="node">
<title>136398668360688</title>
<polygon fill="lightgrey" stroke="black" points="178,-559 41,-559 41,-540 178,-540 178,-559"/>
<text text-anchor="middle" x="109.5" y="-547" font-family="monospace" font-size="10.00">ConvolutionBackward0</text>
</g>
<!-- 136398668360688&#45;&gt;136398668358768 -->
<g id="edge10" class="edge">
<title>136398668360688&#45;&gt;136398668358768</title>
<path fill="none" stroke="black" d="M109.5,-539.87C109.5,-531.75 109.5,-519.31 109.5,-508.89"/>
<polygon fill="black" stroke="black" points="113,-508.67 109.5,-498.67 106,-508.67 113,-508.67"/>
</g>
<!-- 136398668359056 -->
<g id="node13" class="node">
<title>136398668359056</title>
<polygon fill="lightgrey" stroke="black" points="101,-614 0,-614 0,-595 101,-595 101,-614"/>
<text text-anchor="middle" x="50.5" y="-602" font-family="monospace" font-size="10.00">AccumulateGrad</text>
</g>
<!-- 136398668359056&#45;&gt;136398668360688 -->
<g id="edge11" class="edge">
<title>136398668359056&#45;&gt;136398668360688</title>
<path fill="none" stroke="black" d="M59.98,-594.98C68.7,-587.15 81.84,-575.34 92.4,-565.86"/>
<polygon fill="black" stroke="black" points="94.75,-568.46 99.85,-559.17 90.07,-563.25 94.75,-568.46"/>
</g>
<!-- 136398731776048 -->
<g id="node14" class="node">
<title>136398731776048</title>
<polygon fill="lightblue" stroke="black" points="101,-680 0,-680 0,-650 101,-650 101,-680"/>
<text text-anchor="middle" x="50.5" y="-668" font-family="monospace" font-size="10.00">conv1.0.weight</text>
<text text-anchor="middle" x="50.5" y="-657" font-family="monospace" font-size="10.00"> (16, 1, 5, 5)</text>
</g>
<!-- 136398731776048&#45;&gt;136398668359056 -->
<g id="edge12" class="edge">
<title>136398731776048&#45;&gt;136398668359056</title>
<path fill="none" stroke="black" d="M50.5,-649.84C50.5,-642.21 50.5,-632.7 50.5,-624.45"/>
<polygon fill="black" stroke="black" points="54,-624.27 50.5,-614.27 47,-624.27 54,-624.27"/>
</g>
<!-- 136398668356992 -->
<g id="node15" class="node">
<title>136398668356992</title>
<polygon fill="lightgrey" stroke="black" points="220,-614 119,-614 119,-595 220,-595 220,-614"/>
<text text-anchor="middle" x="169.5" y="-602" font-family="monospace" font-size="10.00">AccumulateGrad</text>
</g>
<!-- 136398668356992&#45;&gt;136398668360688 -->
<g id="edge13" class="edge">
<title>136398668356992&#45;&gt;136398668360688</title>
<path fill="none" stroke="black" d="M159.86,-594.98C150.99,-587.15 137.63,-575.34 126.89,-565.86"/>
<polygon fill="black" stroke="black" points="129.13,-563.17 119.32,-559.17 124.49,-568.41 129.13,-563.17"/>
</g>
<!-- 136398731785008 -->
<g id="node16" class="node">
<title>136398731785008</title>
<polygon fill="lightblue" stroke="black" points="214,-680 125,-680 125,-650 214,-650 214,-680"/>
<text text-anchor="middle" x="169.5" y="-668" font-family="monospace" font-size="10.00">conv1.0.bias</text>
<text text-anchor="middle" x="169.5" y="-657" font-family="monospace" font-size="10.00"> (16)</text>
</g>
<!-- 136398731785008&#45;&gt;136398668356992 -->
<g id="edge14" class="edge">
<title>136398731785008&#45;&gt;136398668356992</title>
<path fill="none" stroke="black" d="M169.5,-649.84C169.5,-642.21 169.5,-632.7 169.5,-624.45"/>
<polygon fill="black" stroke="black" points="173,-624.27 169.5,-614.27 166,-624.27 173,-624.27"/>
</g>
<!-- 136398668359392 -->
<g id="node17" class="node">
<title>136398668359392</title>
<polygon fill="lightgrey" stroke="black" points="324,-438 223,-438 223,-419 324,-419 324,-438"/>
<text text-anchor="middle" x="273.5" y="-426" font-family="monospace" font-size="10.00">AccumulateGrad</text>
</g>
<!-- 136398668359392&#45;&gt;136398668359536 -->
<g id="edge15" class="edge">
<title>136398668359392&#45;&gt;136398668359536</title>
<path fill="none" stroke="black" d="M273.5,-418.75C273.5,-411.8 273.5,-401.85 273.5,-393.13"/>
<polygon fill="black" stroke="black" points="277,-393.09 273.5,-383.09 270,-393.09 277,-393.09"/>
</g>
<!-- 136398667547568 -->
<g id="node18" class="node">
<title>136398667547568</title>
<polygon fill="lightblue" stroke="black" points="327,-504 220,-504 220,-474 327,-474 327,-504"/>
<text text-anchor="middle" x="273.5" y="-492" font-family="monospace" font-size="10.00">conv2.0.weight</text>
<text text-anchor="middle" x="273.5" y="-481" font-family="monospace" font-size="10.00"> (32, 16, 5, 5)</text>
</g>
<!-- 136398667547568&#45;&gt;136398668359392 -->
<g id="edge16" class="edge">
<title>136398667547568&#45;&gt;136398668359392</title>
<path fill="none" stroke="black" d="M273.5,-473.84C273.5,-466.21 273.5,-456.7 273.5,-448.45"/>
<polygon fill="black" stroke="black" points="277,-448.27 273.5,-438.27 270,-448.27 277,-448.27"/>
</g>
<!-- 136398668357568 -->
<g id="node19" class="node">
<title>136398668357568</title>
<polygon fill="lightgrey" stroke="black" points="443,-438 342,-438 342,-419 443,-419 443,-438"/>
<text text-anchor="middle" x="392.5" y="-426" font-family="monospace" font-size="10.00">AccumulateGrad</text>
</g>
<!-- 136398668357568&#45;&gt;136398668359536 -->
<g id="edge17" class="edge">
<title>136398668357568&#45;&gt;136398668359536</title>
<path fill="none" stroke="black" d="M373.38,-418.98C354.15,-410.42 324.27,-397.11 302.19,-387.28"/>
<polygon fill="black" stroke="black" points="303.53,-384.04 292.97,-383.17 300.68,-390.44 303.53,-384.04"/>
</g>
<!-- 136398731782448 -->
<g id="node20" class="node">
<title>136398731782448</title>
<polygon fill="lightblue" stroke="black" points="437,-504 348,-504 348,-474 437,-474 437,-504"/>
<text text-anchor="middle" x="392.5" y="-492" font-family="monospace" font-size="10.00">conv2.0.bias</text>
<text text-anchor="middle" x="392.5" y="-481" font-family="monospace" font-size="10.00"> (32)</text>
</g>
<!-- 136398731782448&#45;&gt;136398668357568 -->
<g id="edge18" class="edge">
<title>136398731782448&#45;&gt;136398668357568</title>
<path fill="none" stroke="black" d="M392.5,-473.84C392.5,-466.21 392.5,-456.7 392.5,-448.45"/>
<polygon fill="black" stroke="black" points="396,-448.27 392.5,-438.27 389,-448.27 396,-448.27"/>
</g>
<!-- 136398668357088 -->
<g id="node21" class="node">
<title>136398668357088</title>
<polygon fill="lightgrey" stroke="black" points="446,-196 369,-196 369,-177 446,-177 446,-196"/>
<text text-anchor="middle" x="407.5" y="-184" font-family="monospace" font-size="10.00">TBackward0</text>
</g>
<!-- 136398668357088&#45;&gt;136398668357664 -->
<g id="edge19" class="edge">
<title>136398668357088&#45;&gt;136398668357664</title>
<path fill="none" stroke="black" d="M385.97,-176.98C364.03,-168.3 329.76,-154.75 304.81,-144.88"/>
<polygon fill="black" stroke="black" points="306.01,-141.59 295.42,-141.17 303.43,-148.1 306.01,-141.59"/>
</g>
<!-- 136398668359152 -->
<g id="node22" class="node">
<title>136398668359152</title>
<polygon fill="lightgrey" stroke="black" points="488,-256.5 387,-256.5 387,-237.5 488,-237.5 488,-256.5"/>
<text text-anchor="middle" x="437.5" y="-244.5" font-family="monospace" font-size="10.00">AccumulateGrad</text>
</g>
<!-- 136398668359152&#45;&gt;136398668357088 -->
<g id="edge20" class="edge">
<title>136398668359152&#45;&gt;136398668357088</title>
<path fill="none" stroke="black" d="M433.07,-237.37C428.73,-228.9 421.98,-215.74 416.51,-205.07"/>
<polygon fill="black" stroke="black" points="419.62,-203.47 411.94,-196.17 413.39,-206.66 419.62,-203.47"/>
</g>
<!-- 136398731778288 -->
<g id="node23" class="node">
<title>136398731778288</title>
<polygon fill="lightblue" stroke="black" points="479,-328 396,-328 396,-298 479,-298 479,-328"/>
<text text-anchor="middle" x="437.5" y="-316" font-family="monospace" font-size="10.00">out.weight</text>
<text text-anchor="middle" x="437.5" y="-305" font-family="monospace" font-size="10.00"> (10, 1568)</text>
</g>
<!-- 136398731778288&#45;&gt;136398668359152 -->
<g id="edge21" class="edge">
<title>136398731778288&#45;&gt;136398668359152</title>
<path fill="none" stroke="black" d="M437.5,-297.8C437.5,-288.7 437.5,-276.79 437.5,-266.9"/>
<polygon fill="black" stroke="black" points="441,-266.84 437.5,-256.84 434,-266.84 441,-266.84"/>
</g>
</g>
</svg>
